<?xml version="1.0" encoding="UTF-8"?>
<svg width="148px" height="16px" viewBox="0 0 148 16" version="1.1" xmlns="http://www.w3.org/2000/svg" xmlns:xlink="http://www.w3.org/1999/xlink">
    <!-- Generator: Sketch 52.2 (67145) - http://www.bohemiancoding.com/sketch -->
    <title>masthead-wf_logo-e-148x16</title>
    <desc>Created with Sketch.</desc>
    <g id="Page-1" stroke="none" stroke-width="1" fill="none" fill-rule="evenodd">
        <g id="masthead-wf_logo-e-148x16">
            <rect id="Rectangle" fill="#D71E28" x="0" y="0" width="148" height="16"></rect>
            <path d="M31.5783,10.68 L33.0183,10.68 L33.0183,15.46 L20.9983,15.46 L20.9983,13.72 L22.6983,13.72 L22.6983,3.2 L19.94,3.2 L16.44,15.46 L13.66,15.46 L10.82,5.3 L7.9,15.46 L5.12,15.46 L1.6,3.2 L0,3.2 L0,1.46 L6.52,1.46 L6.52,3.2 L4.64,3.2 L6.98,11.64 L9.78,1.46 L12.66,1.46 L15.52,11.66 L17.82,3.2 L15.86,3.2 L15.86,1.46 L32.8185,1.46 L32.8185,6 L31.3785,6 L31.2385,5.46 C30.7985,3.78 30.3385,3.2 28.9985,3.2 L25.6785,3.2 L25.6785,7.42 L29.6985,7.42 C29.8509872,7.71655731 29.9266299,8.0466346 29.9185,8.38 C29.9289227,8.72639109 29.8533362,9.06996586 29.6985,9.38 L25.6785,9.38 L25.6785,13.72 L29.1385,13.72 C30.4385,13.72 31.0185,13.16 31.4185,11.38 L31.5783,10.68 Z M44.2172,11.38 C43.8172,13.16 43.2572,13.72 41.9372,13.72 L39.1572,13.72 L39.1572,3.2 L41.0572,3.2 L41.0572,1.46 L34.4772,1.46 L34.4772,3.2 L36.1772,3.2 L36.1772,13.72 L34.4772,13.72 L34.4772,15.46 L45.8172,15.46 L45.8172,10.68 L44.3772,10.68 L44.2172,11.38 Z M56.8161,11.38 C56.4161,13.16 55.8561,13.72 54.5361,13.72 L51.7561,13.72 L51.7561,3.2 L53.6561,3.2 L53.6561,1.46 L47.0761,1.46 L47.0761,3.2 L48.7761,3.2 L48.7761,13.72 L47.0761,13.72 L47.0761,15.46 L58.4161,15.46 L58.4161,10.68 L56.9761,10.68 L56.8161,11.38 Z M67.3548,7.26 L64.8148,6.68 C63.3348,6.34 62.7148,5.76 62.7148,4.78 C62.7148,3.6 63.6548,2.86 65.4948,2.86 C67.3348,2.86 68.4148,3.52 68.8348,5.08 L69.0148,5.76 L70.4548,5.76 L70.4548,2.3 C68.8830796,1.49158224 67.1423274,1.06666587 65.3749,1.06 C61.9549,1.06 59.7549,2.7 59.7549,5.34 C59.7549,7.38 61.0349,8.88 63.4949,9.42 L66.0349,9.98 C67.6549,10.34 68.2549,10.98 68.2549,12.04 C68.2549,13.34 67.2749,14.06 65.3149,14.06 C63.0949,14.06 61.9549,13.18 61.4549,11.5 L61.1949,10.64 L59.7549,10.64 L59.7549,14.56 C61.5849502,15.4713218 63.6113126,15.9178084 65.6549,15.86 C69.0149,15.86 71.2149,14.18 71.2149,11.56 C71.2148,9.36 69.8747,7.84 67.3548,7.26 Z M86.6329,3.2 C87.9729,3.2 88.4329,3.78 88.8729,5.46 L89.0129,6 L90.4529,6 L90.4529,1.46 L78.3929,1.46 L78.3929,3.2 L80.0929,3.2 L80.0929,13.72 L78.3929,13.72 L78.3929,15.46 L85.0729,15.46 L85.0729,13.72 L83.0729,13.72 L83.0729,9.64 L87.1929,9.64 C87.3477086,9.32995608 87.4232935,8.98638836 87.4129,8.64 C87.4210727,8.30663029 87.3454276,7.97654256 87.1929,7.68 L83.0729,7.68 L83.0729,3.2 L86.6329,3.2 Z M117.1107,13.88 C117.350603,14.4003466 117.350603,14.9996534 117.1107,15.52 C116.593408,15.5870209 116.072315,15.6204243 115.5507,15.62 C113.6107,15.62 112.6707,14.82 112.4507,12.96 L112.3707,12.26 C112.1307,10.24 111.4707,9.46 109.2707,9.46 L108.1707,9.46 L108.1707,13.72 L110.0707,13.72 L110.0707,15.46 L97.4921,15.46 L97.4921,13.72 L99.1321,13.72 L98.2121,11.22 L93.0121,11.22 L92.0921,13.72 L93.7721,13.72 L93.7721,15.46 L88.4721,15.46 L88.4721,13.72 L89.8721,13.72 L94.772,1.46 L97.432,1.46 L102.432,13.72 L105.1907,13.72 L105.1907,3.2 L103.4907,3.2 L103.4907,1.46 L111.5307,1.46 C114.3907,1.46 116.2507,2.88 116.2507,5.16 C116.236826,6.11544044 115.842919,7.02599554 115.156084,7.69031176 C114.469248,8.35462798 113.546072,8.71797324 112.5907,8.7 L112.5907,8.76 C113.320265,8.75049748 114.022729,9.03612277 114.538653,9.55204674 C115.054577,10.0679707 115.340203,10.7704352 115.3307,11.5 L115.4107,12.24 C115.5307,13.4 115.7707,13.92 116.6907,13.92 C116.831581,13.9186084 116.972089,13.9052267 117.1107,13.88 Z M97.5719,9.52 L95.6119,4.22 L93.6519,9.52 L97.5719,9.52 Z M113.2307,5.44 C113.2307,3.98 112.3307,3.2 110.5307,3.2 L108.1707,3.2 L108.1707,7.7 L110.5307,7.7 C112.3108,7.7 113.2307,6.88 113.2307,5.44 Z M125.1745,9.08 C125.161819,9.42019815 125.237622,9.75786628 125.3945,10.06 L127.7745,10.06 L127.7745,13.6 C127.025969,13.9078108 126.223838,14.0641585 125.4145,14.06 C122.5345,14.06 121.0345,12 121.0345,8.44 C121.0345,4.88 122.5345,2.82 125.2545,2.82 C126.847915,2.73805546 128.291943,3.75300049 128.7545,5.28 L128.9745,5.84 L130.4145,5.84 L130.4145,2.26 C128.769872,1.43578376 126.954079,1.01095668 125.1145,1.02 C120.7145,1.02 117.7545,3.96 117.7545,8.46 C117.7545,12.98 120.6345,15.86 125.1145,15.86 C127.070757,15.8081445 128.988059,15.3014289 130.7145,14.38 L130.7145,8.14 L125.3945,8.14 C125.23997,8.42860667 125.164097,8.75279214 125.1745,9.08 Z M147.4382,8.44 C147.4382,12.5489985 144.107199,15.88 139.9982,15.88 C135.889201,15.88 132.5582,12.5489985 132.5582,8.44 C132.5582,4.33100146 135.889201,1 139.9982,1 C144.107199,1 147.4382,4.33100146 147.4382,8.44 Z M144.1582,8.44 C144.1582,4.9 142.6982,2.84 139.9982,2.84 C137.2982,2.84 135.8382,4.9 135.8382,8.44 C135.8382,12 137.2782,14.04 139.9982,14.04 C142.7182,14.04 144.1582,12 144.1582,8.44 Z" id="Shape" fill="#FFFFFF" fill-rule="nonzero"></path>
        </g>
    </g>
</svg>