<svg xmlns="http://www.w3.org/2000/svg" xmlns:xlink="http://www.w3.org/1999/xlink" width="320" height="101"><defs><path id="A" d="M0 0h320v101H0z"/></defs><g fill-rule="evenodd"><mask id="B" fill="#fff"><use xlink:href="#A"/></mask><path d="M74.573 68.248c-3.414-.12-6.5-.434-9.312-.902a30.9 30.9 0 0 1 .547 5.792c0 1.744-.148 3.453-.426 5.117 3.9.376 8.476.582 13.41.348 4.5-.213 8.45-.766 11.918-1.528.205-3.9 1.3-7.573 3.063-10.817-5.145 1.5-11.486 2.26-19.202 2zm4.836-63l.16-4.562-12.056-.42c-1.097-.04-2.038.695-2.314 1.713L50.96 1.48a2.32 2.32 0 0 0-2.4 2.24l-.058 1.656c4.61-.225 10.26-.408 16.845-.408 5.162 0 13.55.26 14.06.28zm26.383-1.828l-12.98-.453c-.89-1.702-2.64-2.893-4.693-2.964-3.04-.108-5.594 2.275-5.7 5.32l-.003.06c9.213.453 17.166 1.223 23.24 1.943l.136-3.907zm4.785 75.03a5.46 5.46 0 0 0 2.26 4.409c.027.02.058.03.09.03.044 0 .087-.018.118-.054.052-.06.05-.152-.006-.21-.98-1.007-1.52-2.333-1.52-3.736 0-2.952 2.398-5.353 5.346-5.353.248 0 .506.02.812.068.007.001.016.002.023.002.07 0 .133-.048.15-.118.018-.078-.024-.157-.1-.184-.57-.193-1.155-.29-1.743-.29a5.44 5.44 0 0 0-5.429 5.436zm7.45 0a2.02 2.02 0 0 0-2.019-2.02 2.02 2.02 0 1 0 0 4.042 2.02 2.02 0 0 0 2.019-2.022zm-8.796 2.737c-.357-.868-.557-1.818-.557-2.815 0-3.68 2.683-6.727 6.197-7.31.09-2.35.32-4.548.924-4.548s.83 2.148.92 4.473a7.31 7.31 0 0 1 2.044.474l.005.002 1.5-2.6c1.275-2.21 3.175-5.636 4.08-5.113s-1.083 3.83-2.387 6.092l-1.48 2.565c.567.418 1.07.914 1.497 1.473 2.295-1.248 4.737-2.414 5.07-1.836s-1.886 2.11-4.118 3.474c.267.642.446 1.328.524 2.045l2.947.001c2.552 0 6.466-.066 6.465.98s-3.855.975-6.466.977c-.1 0-1.377 0-2.998-.001-.105.682-.302 1.33-.58 1.935l2.638 1.525c2.2 1.276 5.633 3.18 5.11 4.083s-3.827-1.085-6.087-2.4l-2.698-1.56a7.44 7.44 0 0 1-1.445 1.328l1.6 2.777c1.275 2.21 3.29 5.572 2.385 6.093s-2.772-2.855-4.078-5.116l-1.646-2.854a7.28 7.28 0 0 1-1.817.412V89.148c.001 2.554.066 6.472-.977 6.47s-.975-3.86-.976-6.472v-3.47a7.32 7.32 0 0 1-1.714-.511l-1.76 3.05c-1.276 2.21-3.175 5.636-4.08 5.113s1.083-3.83 2.387-6.092l1.78-3.088a7.45 7.45 0 0 1-1.233-1.268c-2.126 1.228-4.746 2.667-5.2 1.875s2.07-2.323 4.222-3.568zm135.636 14.964c-1.575-2.016-3.556-5.59-4.517-8.375-4.844-9.157-2.865-20.585-2.865-20.585-1.2 0-3.243.254-4.764 2.83-3.26-6.992-7.354-10.837-16.606-10.837-.505 0 1.94 2.533 5.747 7.4-7.562-2.678-16.88-3.097-21.94-2.695 1.304-2.352 1.904-4.29 2.04-5.372 0 0-2.934 3.538-6.306 3.538-7.376 0-2.4-7.083-5.692-7.083-4.34 0-8.012 3.897-8.335 8.936-.68 10.597-7.07 12.198-10.49 12.198-1.13 0-1.675.272-2.242.868-.583.613-9.694 11.755-12.724 15.348l-2.966.037c-1.844.046-2.503 3.353-2.45 5.693l4.42-1.445c1.007-.36 1.43-1.083 1.467-1.64l.83.088c1.57-1.438 11.17-10.93 13.065-11.64 9.47-1.983 17.23-6.03 22.345-9.312-.518 2.14-1.44 3.993-2.557 5.096-1.398 1.38-.903 2.082.202 3.15 1.7 1.643 5.892 5.604 9.632 10.42-.32.6-.74 1.613-.845 2.833-.086 1 2.27 3.218 4.55 3.746l-.18-4.888c-.106-1.136-.227-1.372-.818-1.742.273-.574.574-1.015.574-1.015l-7.32-10.752c2.43-1.866 6.29-7.964 8.455-11.574 6.75 1.67 15.48 7.427 24 6.5 0 0 4.72 7.427 7.094 11.893h-.022c2.133 2.195 4.118 6.235 5.13 8.26 0 0 1.078-.072 1.836 1.045-.02.125-.06.506-.06 1.494 0 1.292.595 2.256.615 2.278h6.133c-.554-.736-2.47-3.22-2.757-3.555-.596-.697-1.114-1.045-1.676-1.147zM54.414 61.95c-.695-1.017-10.104 4.708-10.843 5.135a10.47 10.47 0 0 1 .977 1.694c.743-.43 10.56-5.812 9.866-6.83zm-9.77-5.403c-.75-.433-3.556 4.227-5.22 7.092.595.275 1.16.603 1.69.98 1.657-2.9 4.282-7.64 3.532-8.074zM37.936 73.67a2.95 2.95 0 0 0-3.402-3.397c-1.22.2-2.202 1.183-2.405 2.403a2.95 2.95 0 0 0 3.409 3.407c1.22-.203 2.202-1.19 2.398-2.413zm-5.662 6.35c-2.264-1.404-3.632-3.785-3.632-6.412 0-4.157 3.437-7.54 7.663-7.54a15.24 15.24 0 0 1 .89.05c.29.044.5-.367.072-.505-.725-.24-1.485-.327-2.235-.327a7.9 7.9 0 0 0-7.883 7.89c0 3.174 1.868 6.024 4.785 7.254.43.18.586-.26.34-.412zm1.804-18.79v1.5a9.77 9.77 0 0 1 1.954 0V61.23c0-2.6.07-10.47-.976-10.47s-.98 7.916-.98 10.47zm27.964 4.882c4.417 18.382-9.08 34.88-26.988 34.88-17.648 0-24.587-14.59-24.587-14.59 3.712-1.377 7.56 11.35 24.572 11.35 13.547 0 24.537-11.015 24.537-24.56 0-4.355-.62-5.916-1.328-5.753-.54.124-.4 1.44-.4 2.482 0 2.11-.345 4.555-1.23 6.996l-11.16-2.825a10.4 10.4 0 0 1-.898 3.374c2.64 1.595 5.54 3.506 5.195 4.104s-3.436-.952-6.138-2.446c-.688.983-1.54 1.84-2.516 2.535l2.744 4.758c1.276 2.21 3.3 5.57 2.387 6.095s-2.774-2.857-4.08-5.118l-2.744-4.758a10.35 10.35 0 0 1-3.376.911v5.49c0 2.554.066 6.47-.978 6.473s-.975-3.862-.975-6.473l-.001-5.49c-1.197-.112-2.33-.43-3.376-.912l-2.744 4.76c-1.276 2.212-3.176 5.638-4.08 5.116s1.084-3.833 2.39-6.094l2.744-4.758c-.966-.688-1.8-1.534-2.494-2.503l-.445.255c-2.21 1.278-5.566 3.295-6.088 2.39s2.853-2.778 5.112-4.083l.45-.26c-.6-1.32-.943-2.78-.943-4.323 0-4.21 2.486-7.826 6.063-9.488l-.72-1.326c-1.312-2.275-5.163-9.086-6.066-8.565-.618.358 1.07 3.677 2.607 6.442-3.48-1.74-7.815-2.653-10.934-3.122-2.112 2.216-4.344 5.27-5.707 9.613-.5 1.624-.694 3.56-2.548 3.688 0-11.598 13.6-28.438 33.587-24.525 10.376 2.03 18.686 9.97 21.158 20.26zm388.554 10.49l-15.05-7.612c-6.156-3.088-7.377-8.108-6.63-14.254-3.457 3.988-3.618 9.215-3.74 11.355-1.048-.527-8.406-3.905-19.12-2.533.606-4.643-1.2-7.334-2.14-8.32l-.106.08c.43 1.258-.095 5.23-2.853 6.272-.406-2.233-2.598-3.862-5.28-3.862-9.712 0-10.97 18.685-19.1 18.685-2.03 0-3.56-1.2-4.052.516-2.33 8.142-5.616 17.56-5.616 17.56.647.23.802 1.12.563 2.03-2.025 1.64-.337 4.332-.337 4.332h5.77l-1.485-3.19c-.266-.62-.63-.955-1.04-1.164 1-3.286 5.055-13.765 6.75-14.017a49.03 49.03 0 0 0 21.125-8.538c-1.3 2.356-3.11 4.223-4 5.07-1.346 1.28-.74 2.007.546 3.36 1.012 1.064 3.652 3.16 7.86 9.04-.594.307-1.255.802-1.7 1.595-.492.874.854 3.996 2.66 5.485l2.015-4.456c.433-1.127.39-1.53-.08-2.075l.435-.88-6.374-10.564 10.823-9.126c2.657.668 12.154 5.824 20.91 4.46 4.712 1.422 15.458 2.833 15.458 2.833l-1.423 1.495c.02-.001-.807 4.873-3.383 9.356l.103.936c-.89-.107-2.264-.102-3.428.638-.846.538-2.09 2.875-1.785 5.195l4.51-1.88c.98-.475 1.187-.676 1.324-1.29l1.4-.5c.503-.645 3.095-7.672 6.886-14.83.22-.413.045-.966-.404-1.194zm-103.96 19.55c-1.582-2.02-3.58-5.616-4.544-8.42a41.51 41.51 0 0 1-.963-1.594c-1.42-2.495-1.84-4.092-3.035-7.725-1.272.815-5.715.712-8.58.148.15.14 5.314 5.63 7.863 9.17 2.137 2.2 3.925 5.83 5.178 8.138 0 0 .762-.064 1.47.856-.007.033-.44 2.045.727 4.117.008.014 6.118 0 6.118 0-.687-1.125-1.932-2.8-2.138-3.094-.54-.774-1.132-1.373-2.095-1.6zm15.44-6.364l.32-1.173c-.24-.785-4.5-6.65-8.047-13.958-.055-.113-.594-1.176-1.46-1.513-4.636-1.804-14.235-5.392-20.047-11.26-2.272-2.52-3.5-4.242-3.765-5.234 0 0-2.48 5.61.445 11.066l-2.983-2.73c-3.176-1.05-9.828-3.365-18.627-2.3.55-2.084.816-4.773.76-6.274l-.367-.282c-.383.526-3.638 6.094-9.46 1.588-3.456-2.674-8.907-2.03-10.683 4.73-2.338 8.9-8.768 11.848-12.748 12.862-.544.14-.766.293-.987.684L266.82 92.83c-.69.1-1.936.346-3.004.738-.94.347-1.648 3.693-1 5.94l4.178-2.537c1.32-.876 1.1-2.06 1.1-2.06h.823l9.243-14.228c7.835-1.605 13.69-4.038 18.53-7.305-.414.834-.995 1.61-2.504 2.786-1.13.88-.888 1.48-.372 2.172.172.23 5.752 6.615 8.677 11.715-.537.36-1.172.878-1.73 1.592-.616.79.15 3.937 1.772 5.623l2.513-4.195c.52-.99.557-1.264.28-1.87.4-.633.878-1.134.878-1.134l-6.215-11.67c2.364-1.276 6.323-5.585 9.1-8.8 2.592.075 4.787.968 6.228 1.334 4.506 1.145 12.07 6.536 22.294 4.854 4.658.203 11.446 1.783 14.92 2.66l.388 1.958c.01-.016 3.525 3.474 5.71 8.175a87.47 87.47 0 0 0 1.099.864c-.493.37-1.6 1.364-1.778 2.92-.116.997 2.336 3.352 4.577 4.022l.13-4.89c-.03-1.06-.125-1.345-.59-1.705zm91.59-43.443c.552 1.05 1.073 2.02 1.232 2.258.38.574 8.52 1.23 8.52 1.23l-6.978-4.005-1.994-5.664.002-.018-.008.003-.003-.008c-.007.004-.012.01-.018.014-6.885 1.87-17.83 10.346-20.81 13.97 9.085 3.525 6.913 15.2 14.83 16.928 3.627.79 7.404.043 9.95-.42l-.573 1.095c.017-.007.52 4.573-.605 9.322l-.042 1.387s-1.427-.645-2.684-.03c-.9.442-2.496 2.53-2.54 4.87l4.74-1.185c1.15-.358 1.315-.523 1.575-1.277.106-.12 1.68-1.242 1.68-1.242.296-.73.73-8.094 2.488-15.685.067-.29-.116-.732-.407-.8l-16.178-3.584s2.475-14.688 7.822-17.17zM147.808 37.2c-.524-.018-1.266.26-1.648.616s-1.124.636-1.648.618l-3.31-.116 11.56-11.54a1.77 1.77 0 0 0 .004-2.503c-.42-.42-1-.583-1.544-.492l-23.542 23.5s-1.138-1.536.866-3.673c.57-.61 2.716-2.767 5.493-5.543l-17.31-.605.41-11.78s-4.084 3.207-4.297 9.333l-.403 11.516c-.055 2.86-1.04 5.87-1.905 7.045 1.788-.4 3.643-.622 5.55-.622h5.42c12.453.365 16.24-2.337 20.698-6.132 2.693-2.294 10.06-9.465 10.06-9.465l-4.453-.156zm101.378 1.373c-12.217 5.576-15.867 13.704-17.965 17.59 6.726 3.44 8.173 9.707 8.173 9.707s3.66-16.013 6.857-19.38c1.465 1.3 6.216 4.335 6.216 4.335l-4.13-6.547.85-5.702zM37.22 10.3c7.228-.37 13.896-.535 21.307-.585 1.685-.01 2.718 1.28 2.6 2.344l1.61-.015.082-2.33c9.863.054 22.012.467 28.085.976 1.986.166 2.26 1.677 2.24 2.514l1.603.138.084-2.378c7.338.538 14.785 1.24 21.956 2.11.023-.674-.023-1.35 0-2.026-4.468-.676-19.215-2.977-39.002-3.68-20.522-.724-35.22.538-40.573.914-.023.672.023 1.344 0 2.017zm67.816 13.25c1.365 0 2.347-.434 3.232-1.394a561.61 561.61 0 0 0-16.883-1.538l-1 28.693c5.598-.397 12.527-2.105 16.345-4.02.001 0 1.23-5.583 1.53-15.356-.612-.757-1.584-1.905-3.75-1.905-2.083 0-3.438.703-3.438 2.043 0 .78.345.922.345 1.375s-.413.8-.413 2.442c0 1.594.4 3.212 1.027 3.357 1.13.26 2.454-.415 3.036 1.172s-.156 3.113-2.063 4.765c-.873.757-3.47 3.116-9.874 3.116L93.4 23.4l11.646.152zm-44.89-1.968c1.06-.095 1.775-.468 2.81-1.89-6.933-.08-10.433-.002-16.962.285l-.8 22.656c4.223 2.756 11.347 4.993 17.492 5.778v-1.347c-9.055-1.027-9.143-8.693-9.143-10.996 0-1.7 1.18-.91 2.31-1.172.625-.144 1.236-1.764 1.236-3.357 0-1.642-.412-2-.412-2.443s.344-.596.344-1.376c0-1.338-.838-2.042-2.92-2.042-5.08 0-4.225 3.926-4.225 6.826 0 1.536-1.29 2.5-1.947 2.902l.076-12.98 12.13-.843zm63.232 7.372l6.592.202 5.3 5.568 3.677-7.405c1.002-2.072.835-4.173-3.635-4.653-1.223-.132-2.68-.196-3.784-.234l1.934-3.36 2.764 1.744 9.94.56a.99.99 0 0 0 1.019-.951l.04-1.225c11.418-4.445 34.792 29.5 60.167 22.69l-.343-.235c-26.973 1.815-47.392-27.718-60.133-23.52v.004l-1.892-.065c-1.582 0-2.465.77-2.465.77l-2.8-.516-1.28-1.35 2.282.08 3.76-1.117.648.672c1.444-.462 3.047-.3 3.047-.3a1.81 1.81 0 0 0 1.873-1.748l.026-.74c20.46-2.83 49.003 25.862 63.86 25.862l.554-.567c-12.012 0-43.623-30.602-65.398-26.087l-2.137-.074c-.506-.018-1.21 1.26-3.167 1.223s-7.237-1.396-7.237-1.396l-.932-2.007s.235-.843.626-.83a452.95 452.95 0 0 0 1.54.054c.327.002.46-.142.615-.554.09-.235.333-.89.56-1.864s.24-1.694.24-1.694l3.264.027c.3.004.417-.15.354-.36-.208-.695-.892-1.956-3.532-2.062l.18-2.928c-1.11-.344-5.965-.798-6.675 1.72 1.23-.533 5.072-1.126 5.022.204l-.037 1.053c-3.96-.268-8.71.172-8.925 1.338-.17.9 2.857 1.54 3.893 1.747 0 0-.576 1.822-1.583 2.043l2.31 2.105c.007.025 1.476 2.943 2.682 5.335.84 1.665-5.673-2.84-6.197-2.444-.477.358.8 2.064 1.105 2.852.392.855-.046.936-.247 1.083-.195.146-4.2 2.034-5.906 3.836l-2.47-.087c.936-2.13 2.397-5.372 3.013-6.294.937-1.406-.98-.872-2.17.8l-3.79 5.39-.12 3.43a4.14 4.14 0 0 0 3.987 4.281zm-38.66-6.174l.092-2.626-7.965-.374a331.01 331.01 0 0 0-8.626-.177l-1.174 33.57s1.895-.278 2.122-3.306c.002-.023.714-12.912.714-12.912h12.986l.001.014 1.415-1.692-10.733-.375c.713-5.083 2.21-11.506 11.168-12.122zm-7.495-9.863c-.02 0-.04-.001-.06-.001.01 0 .02.001.03.001h.03zM9.436 49.26s17.518-9.05 26.1-18.664l.17-4.887c-2.32 3.55-8.975 11.738-26.144 22.524l-.127 1.027zm-.28 7.377L0 56.318l.18-5.152c28.31-18.94 37.207-36.67 37.207-36.67 2.94-.906 22.478-1.85 39.796-1.245s36.235 3.023 39.612 4.02c-.016.44.008 2.426 0 2.65-5.032-.722-20.18-2.657-39.73-3.342-15.402-.538-29.53.002-36.163.352L40 42.805c-1.63-.265-3.282-.414-4.946-.414-10.873 0-20.438 5.69-25.898 14.246zm109.305-.76c-12.394-1.313-23.543 7.71-24.855 20.118-.16 1.522-.217 3.783.127 6.232.874-.196 1.708-.2 1.708-1.89 0-1.64.142-3.174.395-4.616 2.825-.945 5.363-2.075 7.577-3.36-2.318-1.406-4.76-3.05-4.41-3.653.394-.684 3.695 1.045 6.26 2.496 1.31-.874 2.496-1.796 3.562-2.756-1.475-2.595-3.407-6.2-2.693-6.62.677-.392 2.644 2.704 4.138 5.232 2.464-2.56 4.118-5.312 5.022-7.993.95-.025 1.892.008 2.82.107 10.578 1.12 18.274 10.647 17.154 21.236S124.61 98.92 114.022 97.88c-10.574-1.037-12.95-5.966-14.763-3.643 5.352 4.426 9.792 6.142 14.447 6.636 12.394 1.31 23.543-7.712 24.854-20.117s-7.703-23.568-20.097-24.88zM257.57 67.472c.016-.29-.166-.695-.882-.695h-17.295c-.994 4.124 2.367 7.1 4.697 6.88 3.262-.305 7.123-1.72 9.9-2.882l-.236 1.202c.016-.008 1.262 6.08 1.267 10.848-.606-.072-1.687-.1-2.88.523-.888.465-2.082 2.88-1.77 5.2l4.505-1.893c1.084-.53 1.392-.85 1.363-1.813.582-.776 1.588-1.75 1.588-1.75.162-.757-.67-7.965-.258-15.62zm48.505-20.18c-10.605 0-12.322 4.772-12.322 4.772 3.368-1.013 7.873-1.766 12.602-1.766 4.994 0 9.235.82 13.04.82 4.9 0 6.553-1.488 7.274-3-1.182.275-2.478.78-5.51.78-5.652 0-9.43-1.606-15.08-1.606zm15.524-3.698s3.53 3.623 7.953 2.737c3.357-.672 8.388-5.133 14.82-10.032 0 0-1.225-1.643-4.288-1.643-4.364 0-11.585 4.048-17.486 3.537l-.087.08c3.522 3.02 7.96 4.196 9.22 3.927-2.45 3.134-10.13 1.394-10.13 1.394zm26.896-8.56c2.13 0 3.49-.703 5.586-.703 3.127 0 5.065 1.206 5.065 1.206-.002-.423-.198-2.37-.726-3.704-.41-1.03-1.182-1.626-1.744-.28l-.6 1.435c-.35.773-1.183.79-1.045.286.132-.48 1.403-2.933-4.63-2.933-5.316 0-8.068 1.538-10.566.386 3.285 3.66 6.62 4.308 8.66 4.308zm-49.776 3.55c11.948-1.952 19.77 1.428 22.598 2.662l.23-.34c-5.795-3.208-12.853-6.6-26.326-3.512-14.95 3.427-15.77 7.28-35.405 9.037l.5 1.828c20.493-1.55 24.496-7.4 38.412-9.675zm-35.448 25.46c10.698 2.154 15.02-6.722 22.89-9.432-4.037-2.062-9.984 1.055-9.984 1.055 8.76-5.45 12.28-4.094 16.4-3.25-.832-1.027-2.388-2.307-4.93-2.82-11.05-2.225-14.705 6.943-27 4.694 0 0 1.78 4.142 6.1 4.392 0 0-6.187 2.108-11.037.648 0 0 2.25 3.642 7.57 4.712zm-6.74-14.442c.462 1.224-.653 1.91-1.465 1.03s-2.6.853-2.6.853c.03.55-.188 1.654.93 2.224.825.42 1.37.14 1.37.14l1.713.705s.882-1.343 1.51-1.677c1.494-.793 1.434-2.525 1.434-2.525-.76-1.096-2.472-7.98-2.884-10.75-.1-.592-.23-1.17-.4-1.72 0 0-.162-.017-.163-.012l-2.37 4.366c.36.646 2.806 7.06 2.92 7.363zm171.305-3.297c4.034-.383 12.506-6.64 16.01-7.795l-.063-.14c-1.866.342-4.05-.787-6.97-.616-7.344.428-8.766 6.146-16.867 3.86l-.04.06c.827 1.583 4.618 4.946 7.93 4.63zm-64.216 2.44c.725 1.1-.227 2.033-1.225 1.342S360 51.505 360 51.505c.153.54.178 1.68 1.41 1.997.91.235 1.388-.16 1.388-.16l1.85.32s.58-1.525 1.13-1.994c1.306-1.113.866-2.815.866-2.815-.994-.92-4.2-7.36-5.217-10-.22-.567-.484-1.1-.773-1.616.002.003-.164.02-.164.02l-1.386 4.85c.498.56 4.33 6.374 4.51 6.65zm-11.648-1.996l.24.77c.2.635 7.652 3.338 7.652 3.338l-5.498-5.535-.37-5.23.048-.646c-6.93 1.988-12.052 10.636-19.26 14.72 7.958 3.98 10.38 10.647 11.884 13.104 0 0 1.554-1.928 1.716-6.785.204-6.07-2.29-9.462 3.6-13.736zm39.228-9.266c15.49 2.13 27.977 9.726 32.002 12.416-2.058.062-4.605-.16-7.724-.48-3.986-.406-6.1-.867-10.604-.517-5.87.46-8.99 2.504-10.492 3.525l.385.366c3.38-.88 6.515-1.44 12.864-1.44s7.974 1.18 11.413 1.18c7.358 0 6.634-2.84 6.634-2.84s-15.956-11.632-34.185-14.138c-18.93-2.604-28.165 1.302-28.165 1.436l.543 1.437c0-.136 8.397-3.547 27.33-.945zm1.2 15.706l-.006-.4c-1.764-.393-3.795-.75-6.162-.75-14.378 0-15.287 10.258-27.472 10.258-1.2 0-2.982-.286-3.734-.4-.475-.073-.602.183-.34.43 1.782 1.678 6.64 5.225 14.32 5.344 9.5.147 14.694-7.24 14.808-7.726-2.145 1.745-10.875 5.33-11.873 4.64 7.436-8.428 17.297-10.823 20.46-11.396zm51.756-16.526c2.648.21 3.864-.77 7.81-1.894 4.3-1.228 8.192.82 8.192.82.001-.48-.794-3.002-1.476-4.22-.327-.584-.99-.582-1.24.04-.178.44-.645 1.85-.672 1.923-.15.397-.482.33-.626.036-.494-1.004-1.098-3.21-3.876-3.032-4.17.266-13.317 2.1-17.12-.155l-.122.11c2.07 2.904 5.773 6.146 9.13 6.367zm-286.914 26.88c9.376 1.918 13.53-4.48 13.53-4.48-2.684 1.437-8.955 2.475-9.612 1.744 10.344-7.758 20.263-6.752 23.527-6.356l1.298-1.507c-2.672-1.466-6.116-3.23-11.432-3.23-9.606 0-13.137 5.644-19.983 5.644-3.467 0-5.61-1.82-6.882-2.968-.703-.634-.99-.615-.866.006.5 2.476 2.922 9.61 10.42 11.144zm53.99-14.912c-8.574-1.968-19.845-1.547-24.427 4.547l.38.174c2.42-1.67 11.275-4.503 23.452-2.305 8.95 1.615 14.215-2.96 14.215-2.96-.054.022-6.462 2.186-13.62.545zm-104.77 6.04l.055-1.57c-6.318 2.395-14.298 3.476-23.822 3.144-9.34-.327-17.913-1.247-24.563-3.353 2.375 2.712 4.272 5.838 5.58 9.236 2.635.38 5.423.73 8.37.73 24.905 0 34.138-8.012 34.378-8.187zm132.02-18.35c8.252-2.088 12.244-4.435 17.08-.934 0 0 .054-3.063-.87-4.477-.293-.448-1.136-.57-2.163 1.485-.362.725-.782.466-.818.154-.114-.97.232-2.897-2.355-2.967-5.265-.144-13 4.715-19.675.47 0 0 3.158 6.115 8.8 6.268zm-11.566 9.507c2.353-2.513 5.72-5.77 9.694-7.803-.325-.95-2.688-1.868-5.425-1.868-8.262 0-9.982 8.35-20.465 5.585 3.58 4.673 8.25 6.345 16.195 4.086zm242.608 3.194c-.42.617-.578 2.292-.578 2.292l-1.93.187s-.37.525-1.338.54c-1.313.02-1.648-1.108-1.948-1.602 0 0 .806-2.477 1.988-2.06s1.878-.765.853-1.67c-.254-.226-5.66-4.416-6.308-4.836 0 0 1.39-2.047.068-5.748-.002-.003.16-.063.157-.067a12.36 12.36 0 0 1 1.21 1.396c1.734 2.36 6.68 7.89 7.92 8.533 0 0 .9 1.573-.094 3.037z" mask="url(#B)" fill="#787070"/></g></svg>